<svg width="512" height="512" viewBox="0 0 512 512" fill="none" xmlns="http://www.w3.org/2000/svg">
<path d="M502.342 233.2L278.857 9.65349C272.67 3.47217 264.283 0 255.537 0C246.792 0 238.404 3.47217 232.217 9.65349L185.749 56.0886L244.629 114.97C275.554 104.524 304.834 134.136 294.217 164.89L350.971 221.646C390.091 208.16 420.891 257.075 391.508 286.435C361.234 316.71 311.268 283.155 327.508 243.76L274.537 190.857V330.116C303.451 344.448 299.977 377.945 284.914 392.974C277.555 400.33 267.576 404.461 257.171 404.461C246.767 404.461 236.788 400.33 229.429 392.974C209.349 372.86 216.777 339.362 242.286 328.973V188.399C218.514 178.674 214.172 153.267 220.983 136.97L162.937 78.8547L9.65802 232.16C3.47403 238.345 0 246.734 0 255.481C0 264.227 3.47403 272.616 9.65802 278.801L233.212 502.348C239.396 508.528 247.782 512 256.526 512C265.269 512 273.655 508.528 279.84 502.348L502.342 279.841C508.526 273.656 512 265.267 512 256.521C512 247.774 508.526 239.386 502.342 233.2Z" fill="white"/>
</svg>
